<?xml version="1.0" standalone="no"?><!DOCTYPE svg PUBLIC "-//W3C//DTD SVG 1.1//EN" "http://www.w3.org/Graphics/SVG/1.1/DTD/svg11.dtd"><svg t="1677056769160" class="icon" viewBox="0 0 1024 1024" version="1.1" xmlns="http://www.w3.org/2000/svg" p-id="56573" data-spm-anchor-id="a313x.7781069.0.i0" xmlns:xlink="http://www.w3.org/1999/xlink" width="32" height="32"><path d="M137.011077 624.926171c7.593271 25.295083 17.701812 49.498633 29.993419 72.325903L77.973398 802.039208l130.93646-42.237568c16.562822 20.217083 35.118877 38.773138 55.33596 55.33596l-42.237568 130.93646 104.739677-89.078556c22.82727 12.291607 47.078278 22.400148 72.325903 29.993419l11.105158 137.011077 62.69194-122.394031c12.861102 1.281364 25.912036 1.945776 39.152802 1.945776s26.244242-0.664411 39.152802-1.945776l62.69194 122.394031 11.105158-137.011077c25.295083-7.593271 49.498633-17.701812 72.325903-29.993419l104.739677 89.078556-42.237568-130.93646c20.217083-16.562822 38.773138-35.118877 55.33596-55.33596l130.93646 42.237568-89.078556-104.739677c12.291607-22.82727 22.400148-47.078278 29.993419-72.325903l137.011077-11.105158-122.394031-62.69194c1.281364-12.861102 1.945776-25.912036 1.945776-39.152802s-0.664411-26.244242-1.945776-39.152802l122.394031-62.69194L886.988923 399.073829c-7.593271-25.295083-17.701812-49.498633-29.993419-72.325903l89.078556-104.739677-130.93646 42.237568c-16.562822-20.217083-35.118877-38.773138-55.33596-55.33596L802.039208 77.92594l-104.739677 89.078556c-22.874728-12.291607-47.078278-22.400148-72.325903-29.993419L613.868471 0l-62.69194 122.394031c-12.861102-1.281364-25.912036-1.945776-39.152802-1.945776s-26.244242 0.664411-39.152802 1.945776L410.178987 0 399.073829 137.011077C373.778746 144.604347 349.575196 154.712889 326.747926 167.004496L221.960792 77.92594l42.237568 130.93646C243.981276 225.425221 225.425221 243.981276 208.8624 264.198359l-130.93646-42.237568 89.078556 104.739677C154.712889 349.575196 144.604347 373.778746 137.011077 399.073829L0 410.178987l122.394031 62.69194c-1.281364 12.861102-1.945776 25.912036-1.945776 39.152802s0.664411 26.244242 1.945776 39.152802L0 613.868471 137.011077 624.926171zM820.880011 360.205775c22.542522 45.796913 35.213792 97.28878 35.213792 151.770496 0 182.048663-141.377207 331.066599-320.341104 343.26329l0-302.164712c14.189924-8.210224 23.728971-23.539139 23.728971-41.098577 0-0.284748 0-0.569495 0-0.854243L820.880011 360.205775zM512.023729 167.953654c118.597395 0 223.14724 59.986838 285.032396 151.248459l-262.015294 151.295917c-6.786486-3.796635-14.664504-5.932243-22.969644-5.932243s-16.183158 2.135607-22.969644 5.932243L226.991333 319.202113C288.876489 227.940492 393.426334 167.953654 512.023729 167.953654zM203.119989 360.205775l261.398341 150.916253c0 0.284748 0 0.569495 0 0.854243 0 17.559438 9.539046 32.888353 23.728971 41.098577l0 302.164712c-178.963897-12.196691-320.341104-161.214627-320.341104-343.26329C167.953654 457.542012 180.577467 406.002688 203.119989 360.205775z" p-id="56574" fill="#ffffff"></path></svg>