<?xml version="1.0" standalone="no"?><!DOCTYPE svg PUBLIC "-//W3C//DTD SVG 1.1//EN" "http://www.w3.org/Graphics/SVG/1.1/DTD/svg11.dtd"><svg t="1677725728011" class="icon" viewBox="0 0 1024 1024" version="1.1" xmlns="http://www.w3.org/2000/svg" p-id="3569" width="64" height="64" xmlns:xlink="http://www.w3.org/1999/xlink"><path d="M959.070405 450.344994H622.961595a49.318974 49.318974 0 0 1-49.318974-49.318974V64.91721A63.621477 63.621477 0 0 0 518.158774 0.309353a61.648718 61.648718 0 0 0-67.813589 61.648718v339.067949a49.318974 49.318974 0 0 1-49.318975 49.318974H64.9174A63.621477 63.621477 0 0 0 0.309544 505.82884a61.648718 61.648718 0 0 0 61.648718 67.81359h339.067948a49.318974 49.318974 0 0 1 49.318975 49.318974v336.10881A63.621477 63.621477 0 0 0 505.829031 1023.67807a61.648718 61.648718 0 0 0 67.936887-61.648718V622.961404a49.318974 49.318974 0 0 1 49.318974-49.318974H962.029543a61.648718 61.648718 0 0 0 61.648718-67.81359 63.621477 63.621477 0 0 0-64.607856-55.483846z m-9.370605 73.978461H598.302108a73.978461 73.978461 0 0 0-73.978462 73.978462V949.699609a12.329744 12.329744 0 0 1-24.659487 0V598.301917a73.978461 73.978461 0 0 0-73.978461-73.978462H74.288006a12.329744 12.329744 0 1 1 0-24.659487h351.397692a73.978461 73.978461 0 0 0 73.978461-73.978461V74.287815a12.329744 12.329744 0 0 1 24.659487 0v351.397692a73.978461 73.978461 0 0 0 73.978462 73.978461H949.6998a12.329744 12.329744 0 0 1 0 24.659487z" fill="#ffffff" p-id="3570"></path></svg>