<?xml version="1.0" standalone="no"?><!DOCTYPE svg PUBLIC "-//W3C//DTD SVG 1.1//EN" "http://www.w3.org/Graphics/SVG/1.1/DTD/svg11.dtd"><svg t="1685410037463" class="icon" viewBox="0 0 1024 1024" version="1.1" xmlns="http://www.w3.org/2000/svg" p-id="13637" xmlns:xlink="http://www.w3.org/1999/xlink" width="19" height="19"><path d="M623.83 120.25c0.098 0.098 0.098 0.298 0.098 0.497V456.037h167.69c0.103 0 0.103 0.098 0.2 0.2v0.298l-279.82 279.82-279.824-279.917v-0.103c0.103-0.098 0.103-0.2 0.203-0.2H400.071V120.747c0-0.2 0.099-0.399 0.2-0.497h223.657m0-55.965H400.07c-30.883 0-55.964 25.583-55.964 56.462v279.325H232.174c-22.686 0-43.067 13.892-51.664 34.778-8.696 20.884-3.894 45.068 12.091 61.163L472.422 775.93a55.953 55.953 0 0 0 39.575 16.392c14.293 0 28.683-5.5 39.574-16.392l279.82-279.819c15.992-15.991 20.788-40.273 12.097-61.26-8.694-20.886-29.083-34.778-51.67-34.778H679.891V120.747c0-30.878-25.085-56.462-55.964-56.462z m0 0M931.728 903.75H92.264c-15.488 0-27.98 12.49-27.98 27.976 0 15.497 12.492 27.989 27.98 27.989h839.464c15.495 0 27.986-12.492 27.986-27.989 0-15.485-12.492-27.977-27.986-27.977z m0 0" p-id="13638" fill="#393939"></path></svg>