<?xml version="1.0" standalone="no"?><!DOCTYPE svg PUBLIC "-//W3C//DTD SVG 1.1//EN" "http://www.w3.org/Graphics/SVG/1.1/DTD/svg11.dtd"><svg t="1678240530402" class="icon" viewBox="0 0 1024 1024" version="1.1" xmlns="http://www.w3.org/2000/svg" p-id="29912" width="32" height="32" xmlns:xlink="http://www.w3.org/1999/xlink"><path d="M0 0m113.765137 0l796.355961 0q113.765137 0 113.765137 113.765137l0 796.355961q0 113.765137-113.765137 113.765137l-796.355961 0q-113.765137 0-113.765137-113.765137l0-796.355961q0-113.765137 113.765137-113.765137Z" fill="#B5E0E8" p-id="29913"></path><path d="M601.969263 558.662667s5.460727-46.264489 6.750064-49.6016c-2.199459 1.630634-8.41862 4.929823-10.580157 6.674222-13.689738 10.883531-49.867052 14.561938-86.764878 13.72766-36.897826 0.834278-73.07514-2.844128-86.764878-13.72766-2.199459-1.744399-8.380698-5.043588-10.61808-6.674222 1.289338 3.337111 6.825908 49.639522 6.787987 49.6016 1.32726 84.717106-14.106877 96.889975-21.804985 124.762434 24.535348 44.06503 60.143836 86.840721 84.679184 130.905751 5.30904 9.51835 16.799319 11.717809 24.307818 18.657483v3.792171l2.654519 1.289338c0.22753-0.417139 0.530904-0.796356 0.796356-1.213495l0.796356 1.213495 2.65452-1.289338v-3.792171c7.584342-6.939673 18.960856-9.139133 24.307818-18.657483 24.535348-44.06503 60.143836-86.840721 84.679184-130.905751-7.773951-27.872459-23.208088-40.045328-21.880828-124.762434z" fill="#F5C09D" p-id="29914"></path><path d="M674.589342 849.446358a21.577454 21.577454 0 0 1 1.023886-2.692442c-39.779876 84.337888-40.348702 86.537348-1.023886 2.692442z" fill="#EEE4D3" p-id="29915"></path><path d="M683.159649 683.007962c-2.692442 0-12.438322-2.123616-15.168685-2.161538-3.147502 2.009851 2.123616-2.616598 0 0-30.944117 38.490538-62.419139 76.791468-93.590786 115.168241-3.488798 4.323075-8.153168-16.420101-13.045069-19.415917-3.792171-2.389068-17.785283 11.376514-23.435619 12.286635a21.312002 21.312002 0 0 0-7.925637 4.929823c-7.811873 7.243047-13.120912 16.875162-21.274081 23.9286-6.825908 5.915787 2.578676 15.396215 6.522534 22.411732 11.376514 20.022664 29.199719 142.244343 43.420361 183.730697h108.266489l0.568826-3.792171c4.891901-32.005925-2.919972-198.254712 2.161537-230.222716 5.574492-34.963819 10.731845-69.927638 16.60971-104.853535 0.644669-3.75425 0.985965 1.365182-3.10958-2.009851z" fill="#E3E3E3" p-id="29916"></path><path d="M508.378476 819.8295c-1.403103-1.09973-4.474762-2.692442-5.7641-3.792171-8.911602-7.849794-14.296486-20.667333-25.672999-27.076102-5.119431-0.985965-17.140614-3.488798-20.439803-1.441026-7.584342 4.816057-7.584342 13.95519-12.779617 7.811873-25.407547-30.982039-50.208347-62.267452-75.615895-93.287412-7.584342-9.480428-14.106877-10.200941-24.269896-18.619561h-8.115246c-3.792171 3.071659-3.033737 6.901752-2.502833 10.428471 2.275303 15.775432 4.816057 22.070437 7.31889 37.921712 5.043588 32.195534 9.97341 64.466911 15.168685 96.54868 3.147502 19.908899 5.195275 151.68685 8.001482 195.676036h116.798874c6.939673-28.024145 14.599859-170.344332 22.032515-183.048106 4.285154-7.546421 13.538051-15.016998 5.839943-21.122394z" fill="#E3E3E3" p-id="29917"></path><path d="M822.521942 758.168796c-57.944377-58.361515-182.327593-100.98552-183.730697-98.027627-24.952487 52.028589 17.785283 134.318705-7.394734 186.271452a12.552087 12.552087 0 0 0 2.464912 15.585824c5.119431 5.498648 11.035218 112.892938 16.192571 161.88779H891.160241c-3.792171-45.885272-26.545199-223.207199-68.638299-265.717439z" fill="#35658F" p-id="29918"></path><path d="M528.969966 832.2299a9.594193 9.594193 0 0 1 1.061808-10.238862c7.584342-10.466393 14.941155-21.274081 22.373811-31.930082 3.792171-0.530904 5.119431-7.584342 3.375032-8.911602-11.717809-10.011332-31.89216-15.851276-43.609969-25.824686l-1.289339 0.303373c-2.351146 0-3.602563 2.123616-5.195274 3.450876-12.059105 9.897567-27.68285 12.248713-39.704033 22.222124a436.820205 436.820205 0 0 0 25.217939 39.893641 10.731845 10.731845 0 0 1 1.516868 11.376514c-9.063289 23.928601-17.899048 153.165796-26.734807 191.277117h97.838018c-8.873681-38.187164-25.824686-167.613969-34.850054-191.618413z" fill="#1E507D" p-id="29919"></path><path d="M362.07651 438.374995s58.513202-31.816317 35.153427-169.510054a59.80254 59.80254 0 0 0-42.586083 22.753027c-22.677184 27.948302-25.862608 84.451654 7.432656 146.757027zM655.325112 438.374995s-58.513202-31.816317-35.153427-169.510054a59.80254 59.80254 0 0 1 42.586083 22.753027c22.677184 27.948302 27.417398 78.573788-7.432656 146.757027z" fill="#5D1F1D" p-id="29920"></path><path d="M680.429286 409.175277c-11.717809 5.7641-19.984742 17.216457-25.104174 29.199718a184.982113 184.982113 0 0 1-34.925897-154.493056c1.137651-5.005666 2.42699-10.618079-0.22753-15.168685a18.657483 18.657483 0 0 0-10.997297-6.787986 335.114172 335.114172 0 0 0-204.435952 0.872199 14.789468 14.789468 0 0 0-5.802022 2.957894c-3.792171 3.792171-2.730363 10.314706-1.403103 15.661667a180.317742 180.317742 0 0 1-35.039662 155.820316c-5.650335-11.376514-10.276784-28.858423-23.094323-28.062067-40.424545 2.502833-31.323334 51.687294-21.691219 70.155168s27.948302 32.802281 48.577713 33.67448a11.755731 11.755731 0 0 1 7.129282 1.706477 9.859645 9.859645 0 0 1 2.65452 4.702293c10.731845 32.612673 20.705255 59.840462 48.577713 82.328037s65.11158 37.390808 101.85772 31.285413c43.496204-7.205125 87.750842-34.850054 103.336666-77.73951 4.853979-13.272599 3.337111-32.726438 17.595675-40.310781a24.269896 24.269896 0 0 1 8.229011-2.00985c21.160316-3.299189 37.921712-18.771248 47.174611-37.542496a80.962856 80.962856 0 0 0 8.494463-42.661926c-1.441025-17.368144-19.415917-29.199719-30.906195-23.587305z" fill="#FCD6BD" p-id="29921"></path><path d="M636.629708 254.075473v0.758434c12.703774 60.181758-66.173388 87.219939-112.324112 90.594971-26.962338 2.085694-54.03844-4.285154-79.635596-14.18272a348.197163 348.197163 0 0 1-51.421842-25.445469c-9.252898-5.460727-47.970966-31.816317-54.796875-37.163278a0.530904 0.530904 0 0 1 0.22753-0.910121A197.572122 197.572122 0 0 0 432.307521 219.490871c35.077584-32.840203 66.66637-48.539792 107.963116-43.306595 42.548161 5.384883 86.613191 33.560715 96.359071 77.891197z" fill="#783E2B" p-id="29922"></path><path d="M415.128986 628.286931c-0.682591 32.953968 15.168685 65.33911 41.372588 89.419398a175.463763 175.463763 0 0 0 50.208347 30.754509c4.171388 1.706477 20.781098 6.408769 7.015517 16.913083-12.097026 9.252898-41.713884 77.28445-41.713884 77.28445s-55.934526-49.867052-63.139651-59.082028c-12.514165-16.040884-22.753027-29.389327-33.788246-46.150724a174.705329 174.705329 0 0 1-19.908899-46.94708s44.595934-26.848572 52.218198-43.230752" fill="#FFFFFF" p-id="29923"></path><path d="M607.581676 628.173166c0.682591 32.953968-14.713624 65.452876-40.765841 89.533163a176.184276 176.184276 0 0 1-50.246269 30.754509c-4.133467 1.706477-18.392031 10.238862-4.626449 20.743176 12.097026 9.252898 35.418879 75.843425 35.41888 75.843425s59.916306-52.294041 67.121431-61.509017c12.552087-16.040884 22.753027-29.389327 33.788246-46.150724 13.272599-20.060586 16.154649-46.94708 16.154649-46.94708S633.520127 663.629967 614.331741 647.247787" fill="#FFFFFF" p-id="29924"></path><path d="M657.827945 671.21431l-45.126838-42.131023a4.43684 4.43684 0 0 0-7.584342 3.223346l0.606747 391.579602h74.099026l12.893382-106.180795L648.461282 854.755398l73.378514-51.421842z" fill="#1E507D" p-id="29925"></path><path d="M200.681702 758.168796c57.944377-58.361515 182.327593-100.98552 183.730697-98.027627 24.952487 52.028589-17.785283 134.318705 7.356812 186.271452a12.552087 12.552087 0 0 1-2.42699 15.585824c-5.119431 5.498648-11.035218 112.892938-16.230493 161.88779H132.157168c3.564641-45.885272 26.317668-223.207199 68.524534-265.717439z" fill="#35658F" p-id="29926"></path><path d="M365.982446 670.683406l44.520091-41.713884a4.43684 4.43684 0 0 1 7.584342 3.223345l-0.45506 387.142762a4.398919 4.398919 0 0 1-4.398919 4.398919H347.362886a4.398919 4.398919 0 0 1-4.398919-3.640484l-12.286635-100.720069a4.398919 4.398919 0 0 1 0.758434-2.995815l40.614154-58.02022a4.398919 4.398919 0 0 0-1.099729-6.143317l-66.666371-46.71955a4.398919 4.398919 0 0 1-1.441025-5.53657l62.153687-127.985779a4.664371 4.664371 0 0 1 0.985964-1.289338z" fill="#1E507D" p-id="29927"></path></svg>