<?xml version="1.0" standalone="no"?><!DOCTYPE svg PUBLIC "-//W3C//DTD SVG 1.1//EN" "http://www.w3.org/Graphics/SVG/1.1/DTD/svg11.dtd"><svg t="1680770197426" class="icon" viewBox="0 0 1024 1024" version="1.1" xmlns="http://www.w3.org/2000/svg" p-id="3792" width="32" height="32" xmlns:xlink="http://www.w3.org/1999/xlink"><path d="M409.6 460.8H51.2a51.2 51.2 0 0 1-51.2-51.2V51.2A51.2 51.2 0 0 1 51.2 0h358.4a51.2 51.2 0 0 1 51.2 51.2v358.4a51.2 51.2 0 0 1-51.2 51.2zM102.4 358.4h256V102.4H102.4zM972.8 0H614.4a51.2 51.2 0 0 0-51.2 51.2v358.4a51.2 51.2 0 0 0 51.2 51.2h358.4a51.2 51.2 0 0 0 51.2-51.2V51.2a51.2 51.2 0 0 0-51.2-51.2zM409.6 563.2H51.2a51.2 51.2 0 0 0-51.2 51.2v358.4a51.2 51.2 0 0 0 51.2 51.2h358.4a51.2 51.2 0 0 0 51.2-51.2V614.4a51.2 51.2 0 0 0-51.2-51.2zM972.8 1024H614.4a51.2 51.2 0 0 1-51.2-51.2V614.4a51.2 51.2 0 0 1 51.2-51.2h358.4a51.2 51.2 0 0 1 51.2 51.2v358.4a51.2 51.2 0 0 1-51.2 51.2z m-307.2-102.4h256V665.6H665.6z" fill="#ffffff" p-id="3793"></path></svg>